<?xml version="1.0" encoding="UTF-8"?>
<svg version="1.1" xmlns="http://www.w3.org/2000/svg" width="48" height="48">
<path d="M0 0 C5.3618358 2.53468602 10.12185131 5.340338 14.921875 8.828125 C17.18307202 10.32746253 17.18307202 10.32746253 21 10 C21 9.34 21 8.68 21 8 C23.01171875 6.5625 23.01171875 6.5625 25.6875 5 C26.55761719 4.484375 27.42773438 3.96875 28.32421875 3.4375 C30.83863728 2.08668829 33.34460195 1.036036 36 0 C36.0246519 4.82380802 36.04283693 9.64757967 36.05493164 14.47143555 C36.05997174 16.11369464 36.06680378 17.75594923 36.07543945 19.39819336 C36.08751926 21.75375479 36.09323139 24.10925709 36.09765625 26.46484375 C36.10281754 27.20339096 36.10797882 27.94193817 36.11329651 28.7028656 C36.1134925 30.46898088 36.06194719 32.23497146 36 34 C35 35 35 35 31.67358398 35.11352539 C30.19774444 35.11336629 28.72189931 35.10767314 27.24609375 35.09765625 C26.47064713 35.0962413 25.6952005 35.09482635 24.89625549 35.09336853 C22.40996506 35.08775345 19.9237634 35.07519846 17.4375 35.0625 C15.75586067 35.05748694 14.07421994 35.0529237 12.39257812 35.04882812 C8.26168434 35.03777913 4.13085724 35.02050445 0 35 C-1.47360305 32.05279391 -1.14233596 29.06964632 -1.1328125 25.83984375 C-1.13376923 25.13477188 -1.13472595 24.42970001 -1.13571167 23.70326233 C-1.13639229 22.21289989 -1.13454621 20.72253448 -1.13037109 19.23217773 C-1.12501318 16.94312942 -1.13032409 14.65427663 -1.13671875 12.36523438 C-1.1360581 10.9192704 -1.13477722 9.47330654 -1.1328125 8.02734375 C-1.13483673 7.33881821 -1.13686096 6.65029266 -1.13894653 5.94090271 C-1.11495764 1.11495764 -1.11495764 1.11495764 0 0 Z M1 3 C1 12.9 1 22.8 1 33 C1.33 33 1.66 33 2 33 C2 23.1 2 13.2 2 3 C1.67 3 1.34 3 1 3 Z " fill="#157579" transform="translate(6,5)"/>
<path d="M0 0 C11 6 11 6 16 9 C16.61488281 8.566875 17.22976562 8.13375 17.86328125 7.6875 C19.07564453 6.8521875 19.07564453 6.8521875 20.3125 6 C21.11300781 5.443125 21.91351562 4.88625 22.73828125 4.3125 C25 3 25 3 28 3 C28 2.34 28 1.68 28 1 C28.99 0.67 29.98 0.34 31 0 C32.5537293 9.51659195 32.83833472 19.51652723 31 29 C29.35 29 27.7 29 26 29 C26 23.06 26 17.12 26 11 C22.04 12.98 22.04 12.98 18 15 C15 16 15 16 12.51953125 15.00390625 C10.01302083 13.66927083 7.50651042 12.33463542 5 11 C5 16.94 5 22.88 5 29 C3.35 29 1.7 29 0 29 C0 19.43 0 9.86 0 0 Z " fill="#EBECEC" transform="translate(8,9)"/>
<path d="M0 0 C5.3618358 2.53468602 10.12185131 5.340338 14.921875 8.828125 C17.18307202 10.32746253 17.18307202 10.32746253 21 10 C21 9.34 21 8.68 21 8 C23.01171875 6.5625 23.01171875 6.5625 25.6875 5 C26.55761719 4.484375 27.42773438 3.96875 28.32421875 3.4375 C30.83863728 2.08668829 33.34460195 1.036036 36 0 C36.0246519 4.82380802 36.04283693 9.64757967 36.05493164 14.47143555 C36.05997174 16.11369464 36.06680378 17.75594923 36.07543945 19.39819336 C36.08751926 21.75375479 36.09323139 24.10925709 36.09765625 26.46484375 C36.10281754 27.20339096 36.10797882 27.94193817 36.11329651 28.7028656 C36.1134925 30.46898088 36.06194719 32.23497146 36 34 C35 35 35 35 31.67358398 35.11352539 C30.19774444 35.11336629 28.72189931 35.10767314 27.24609375 35.09765625 C26.47064713 35.0962413 25.6952005 35.09482635 24.89625549 35.09336853 C22.40996506 35.08775345 19.9237634 35.07519846 17.4375 35.0625 C15.75586067 35.05748694 14.07421994 35.0529237 12.39257812 35.04882812 C8.26168434 35.03777913 4.13085724 35.02050445 0 35 C0 34.67 0 34.34 0 34 C0.85754883 33.97494385 1.71509766 33.9498877 2.59863281 33.92407227 C5.7893437 33.82876588 8.97990219 33.72954249 12.17041016 33.62768555 C13.54959378 33.5844545 14.92882685 33.54277134 16.30810547 33.50268555 C18.29406938 33.44469597 20.27985269 33.38062277 22.265625 33.31640625 C24.05661621 33.26141968 24.05661621 33.26141968 25.88378906 33.20532227 C29.18074351 33.08105896 29.18074351 33.08105896 33 32 C33 23.09 33 14.18 33 5 C32.01 5 31.02 5 30 5 C30 5.66 30 6.32 30 7 C28.5839401 7.79275148 27.16712447 8.58415312 25.75 9.375 C24.96109375 9.81585938 24.1721875 10.25671875 23.359375 10.7109375 C21.26504946 11.85518821 19.13457427 12.93271286 17 14 C12.05 10.7 7.1 7.4 2 4 C1.34 13.57 0.68 23.14 0 33 C-0.33 33 -0.66 33 -1 33 C-1.02465392 28.46102295 -1.04283789 23.92208457 -1.05493164 19.38305664 C-1.0599714 17.83780234 -1.0668032 16.29255284 -1.07543945 14.74731445 C-1.08752076 12.53074971 -1.09323173 10.31424782 -1.09765625 8.09765625 C-1.10281754 7.4028566 -1.10797882 6.70805695 -1.11329651 5.99220276 C-1.11349277 4.3277067 -1.06189129 2.66334501 -1 1 C-0.67 0.67 -0.34 0.34 0 0 Z " fill="#0A5053" transform="translate(6,5)"/>
<path d="M0 0 C0.33 0 0.66 0 1 0 C2.5537293 9.51659195 2.83833472 19.51652723 1 29 C-0.65 29 -2.3 29 -4 29 C-4.25561761 25.91826331 -4.47482039 22.83497376 -4.6875 19.75 C-4.76033203 18.87730469 -4.83316406 18.00460938 -4.90820312 17.10546875 C-5.33234586 10.5686807 -5.33234586 10.5686807 -3.59375 7.59375 C-3.0678125 7.0678125 -2.541875 6.541875 -2 6 C-1.27648573 4.01985568 -0.59734611 2.02178685 0 0 Z " fill="#7F9798" transform="translate(38,9)"/>
<path d="M0 0 C0.66 0 1.32 0 2 0 C0.81815291 6.02742016 -0.81807207 8.34216852 -6 12 C-6.825 12.639375 -7.65 13.27875 -8.5 13.9375 C-11 15 -11 15 -13.9375 14.375 C-17.006046 12.99728547 -20.0203019 11.56079424 -23 10 C-21.35 8.35 -19.7 6.7 -18 5 C-16.02 5.99 -14.04 6.98 -12 8 C-11.38511719 7.566875 -10.77023438 7.13375 -10.13671875 6.6875 C-8.92435547 5.8521875 -8.92435547 5.8521875 -7.6875 5 C-6.88699219 4.443125 -6.08648438 3.88625 -5.26171875 3.3125 C-3 2 -3 2 0 2 C0 1.34 0 0.68 0 0 Z " fill="#A9B2B3" transform="translate(36,10)"/>
<path d="M0 0 C0 3.63 0 7.26 0 11 C-4.29 11 -8.58 11 -13 11 C-13.09765625 4.84765625 -13.09765625 4.84765625 -13 3 C-12.67 2.67 -12.34 2.34 -12 2 C-10.906875 2.020625 -9.81375 2.04125 -8.6875 2.0625 C-5.34770887 2.00589337 -2.89510051 0 0 0 Z " fill="#B1B7B8" transform="translate(30,27)"/>
<path d="M0 0 C0.495 0.99 0.495 0.99 1 2 C1.66 2 2.32 2 3 2 C3.02886338 6.47915328 3.04675187 10.95828291 3.0625 15.4375 C3.07087891 16.71689453 3.07925781 17.99628906 3.08789062 19.31445312 C3.09111328 20.52939453 3.09433594 21.74433594 3.09765625 22.99609375 C3.10289307 24.12200928 3.10812988 25.2479248 3.11352539 26.40795898 C3 29 3 29 2 30 C-0.59359322 30.08851529 -3.16039691 30.11525945 -5.75390625 30.09765625 C-6.52935287 30.0962413 -7.3047995 30.09482635 -8.10374451 30.09336853 C-10.59003494 30.08775345 -13.0762366 30.07519846 -15.5625 30.0625 C-17.24413933 30.05748694 -18.92578006 30.0529237 -20.60742188 30.04882812 C-24.73831566 30.03777913 -28.86914276 30.02050445 -33 30 C-33 29.67 -33 29.34 -33 29 C-32.14245117 28.97494385 -31.28490234 28.9498877 -30.40136719 28.92407227 C-27.2106563 28.82876588 -24.02009781 28.72954249 -20.82958984 28.62768555 C-19.45040622 28.5844545 -18.07117315 28.54277134 -16.69189453 28.50268555 C-14.70593062 28.44469597 -12.72014731 28.38062277 -10.734375 28.31640625 C-8.94338379 28.26141968 -8.94338379 28.26141968 -7.11621094 28.20532227 C-3.81925649 28.08105896 -3.81925649 28.08105896 0 27 C0 18.09 0 9.18 0 0 Z " fill="#0C3538" transform="translate(39,10)"/>
<path d="M0 0 C0 5.28 0 10.56 0 16 C-1.65 16 -3.3 16 -5 16 C-5 11.05 -5 6.1 -5 1 C-1 0 -1 0 0 0 Z " fill="#A9B2B3" transform="translate(13,22)"/>
<path d="M0 0 C0 2.31 0 4.62 0 7 C-0.66 7 -1.32 7 -2 7 C-2 6.01 -2 5.02 -2 4 C-3.32 4.33 -4.64 4.66 -6 5 C-6 5.66 -6 6.32 -6 7 C-7.4160599 7.79275148 -8.83287553 8.58415312 -10.25 9.375 C-11.03890625 9.81585938 -11.8278125 10.25671875 -12.640625 10.7109375 C-14.73914197 11.85747823 -16.8536077 12.94649552 -19 14 C-19.99 13.01 -20.98 12.02 -22 11 C-19.50935112 10.31292445 -17.62113708 10 -15 10 C-15 9.34 -15 8.68 -15 8 C-12.91796875 6.5625 -12.91796875 6.5625 -10.1875 5 C-1.525 0 -1.525 0 0 0 Z " fill="#0B585E" transform="translate(42,5)"/>
<path d="M0 0 C0 4.95 0 9.9 0 15 C-1.32 15 -2.64 15 -4 15 C-4 10.38 -4 5.76 -4 1 C-2 0 -2 0 0 0 Z " fill="#B0B7B8" transform="translate(39,19)"/>
<path d="M0 0 C-1.24354886 1.29787866 -2.4951264 2.58806759 -3.75 3.875 C-4.44609375 4.59429688 -5.1421875 5.31359375 -5.859375 6.0546875 C-7.85122217 7.86479679 -9.5427658 8.94848086 -12 10 C-12.26953125 7.7109375 -12.26953125 7.7109375 -12 5 C-10.13671875 3.1640625 -10.13671875 3.1640625 -7.6875 1.625 C-6.88699219 1.10164062 -6.08648437 0.57828125 -5.26171875 0.0390625 C-3 -1 -3 -1 0 0 Z " fill="#E2E3E4" transform="translate(36,13)"/>
<path d="M0 0 C1.98 1.32 3.96 2.64 6 4 C5.01 4.33 4.02 4.66 3 5 C2.01 6.485 2.01 6.485 1 8 C-0.98 7.01 -2.96 6.02 -5 5 C-3.35 3.35 -1.7 1.7 0 0 Z " fill="#A1ACAE" transform="translate(18,15)"/>
<path d="M0 0 C3.465 1.98 3.465 1.98 7 4 C6.01 5.485 6.01 5.485 5 7 C2.375 7.1875 2.375 7.1875 0 7 C0 4.69 0 2.38 0 0 Z " fill="#ACB8B9" transform="translate(8,9)"/>
<path d="M0 0 C0.33 0.99 0.66 1.98 1 3 C-0.43429001 3.67354499 -1.87257057 4.33859701 -3.3125 5 C-4.51326172 5.556875 -4.51326172 5.556875 -5.73828125 6.125 C-8 7 -8 7 -11 7 C-11 6.01 -11 5.02 -11 4 C-7.37 2.68 -3.74 1.36 0 0 Z " fill="#E5E9E9" transform="translate(29,27)"/>
<path d="M0 0 C0.66 0 1.32 0 2 0 C2 3.3 2 6.6 2 10 C1.01 10 0.02 10 -1 10 C-1.02689216 8.52093108 -1.04634621 7.04172517 -1.0625 5.5625 C-1.07410156 4.73878906 -1.08570312 3.91507813 -1.09765625 3.06640625 C-1 1 -1 1 0 0 Z " fill="#0C767A" transform="translate(32,28)"/>
<path d="M0 0 C0.66 0.33 1.32 0.66 2 1 C2 5.95 2 10.9 2 16 C1.67 16 1.34 16 1 16 C1 11.71 1 7.42 1 3 C-0.32 3.33 -1.64 3.66 -3 4 C-2.01 2.68 -1.02 1.36 0 0 Z " fill="#999B9C" transform="translate(38,16)"/>
<path d="M0 0 C0.33 0.66 0.66 1.32 1 2 C1.66 2 2.32 2 3 2 C3 4.97 3 7.94 3 11 C0.39665076 8.28817788 0.00543309 7.10866187 -0.1875 3.25 C-0.125625 2.1775 -0.06375 1.105 0 0 Z " fill="#275B5D" transform="translate(39,10)"/>
<path d="M0 0 C0.66 0.99 1.32 1.98 2 3 C0.02 3.99 -1.96 4.98 -4 6 C-4.99 5.01 -5.98 4.02 -7 3 C-4.50935112 2.31292445 -2.62113708 2 0 2 C0 1.34 0 0.68 0 0 Z " fill="#094C50" transform="translate(27,13)"/>
<path d="M0 0 C0 0.99 0 1.98 0 3 C-2.88834003 5.10770759 -4.38462395 6 -8 6 C-6.72879117 2.18637351 -4.19078006 0 0 0 Z " fill="#1B9195" transform="translate(36,9)"/>
<path d="M0 0 C0 1.65 0 3.3 0 5 C-1.98 5.99 -1.98 5.99 -4 7 C-4 5.02 -4 3.04 -4 1 C-2 0 -2 0 0 0 Z " fill="#E7E8E8" transform="translate(39,19)"/>
<path d="M0 0 C0.33 0 0.66 0 1 0 C1.3125 3.1875 1.3125 3.1875 1 7 C-1.5 9.9375 -1.5 9.9375 -4 12 C-4 8.76344816 -3.3449153 7.21247361 -2 4.3125 C-1.62875 3.50425781 -1.2575 2.69601563 -0.875 1.86328125 C-0.58625 1.24839844 -0.2975 0.63351562 0 0 Z " fill="#828D8E" transform="translate(38,9)"/>
<path d="M0 0 C0 1.32 0 2.64 0 4 C-1.98 4 -3.96 4 -6 4 C-5.67 3.01 -5.34 2.02 -5 1 C-3 0 -3 0 0 0 Z " fill="#B1BBBC" transform="translate(30,34)"/>
</svg>
